<svg width="20" height="20" viewBox="0 0 20 20" fill="none" xmlns="http://www.w3.org/2000/svg">
<path fill-rule="evenodd" clip-rule="evenodd" d="M10.5198 1C11.4754 1 12.25 1.77462 12.25 2.73015C12.25 3.40837 13.07 3.74802 13.5496 3.26845C14.2252 2.59278 15.3207 2.59278 15.9964 3.26845L16.7316 4.00362C17.4072 4.67929 17.4072 5.77476 16.7316 6.45043C16.252 6.93 16.5916 7.75 17.2698 7.75C18.2254 7.75 19 8.52462 19 9.48015V10.5198C19 11.4754 18.2254 12.25 17.2698 12.25C16.5916 12.25 16.252 13.07 16.7315 13.5496C17.4072 14.2252 17.4072 15.3207 16.7316 15.9964L15.9964 16.7315C15.3207 17.4072 14.2252 17.4072 13.5496 16.7315C13.07 16.252 12.25 16.5916 12.25 17.2698C12.25 18.2254 11.4754 19 10.5198 19H9.48016C8.52462 19 7.75 18.2254 7.75 17.2698C7.75 16.5916 6.93001 16.252 6.45044 16.7315C5.77477 17.4072 4.6793 17.4072 4.00363 16.7315L3.26846 15.9964C2.59279 15.3207 2.59279 14.2252 3.26845 13.5496C3.74802 13.07 3.40837 12.25 2.73016 12.25C1.77462 12.25 1 11.4754 1 10.5198V9.48016C1 8.52462 1.77462 7.75 2.73016 7.75C3.40838 7.75 3.74804 6.93 3.26846 6.45043C2.59279 5.77476 2.59279 4.67928 3.26846 4.00362L4.00363 3.26844C4.6793 2.59278 5.77477 2.59278 6.45044 3.26844C6.93001 3.74801 7.75 3.40836 7.75 2.73015C7.75 1.77461 8.52461 1 9.48015 1H10.5198ZM10 13C11.6569 13 13 11.6569 13 10C13 8.34315 11.6569 7 10 7C8.34315 7 7 8.34315 7 10C7 11.6569 8.34315 13 10 13Z" fill="#3A9CE4"/>
</svg>
