<svg width="20" height="20" viewBox="0 0 20 20" fill="none" xmlns="http://www.w3.org/2000/svg">
<path fill-rule="evenodd" clip-rule="evenodd" d="M5.44942 6.3062C5.30363 6.34638 5.15343 6.36792 5 6.36792C3.61929 6.36792 2.5 4.62363 2.5 3.24292C2.5 1.86221 3.61929 0.74292 5 0.74292C5.96762 0.74292 6.80684 1.29264 7.2224 2.09681C6.12486 2.93419 5.41666 4.25585 5.41666 5.74292C5.41666 5.92939 5.42784 6.1176 5.44942 6.3062ZM5.73559 7.54584C5.49553 7.52441 5.2499 7.51375 5 7.51375C2.23858 7.51375 0 8.81483 0 11.5763C0 13.3909 0.966696 13.6303 2.4132 13.5811C2.80965 12.3725 3.54775 11.3861 4.54176 10.6495C5.22255 10.1451 6.00197 9.77268 6.84052 9.51719C6.7704 9.43314 6.70344 9.34799 6.63974 9.26229C6.26048 8.75204 5.9492 8.16317 5.73559 7.54584ZM10.0177 11.1596C10.7247 11.1607 11.4058 11.2258 12.0449 11.3565C12.7138 11.4933 13.3367 11.7019 13.8947 11.9842C15.5737 12.8332 16.6667 14.3483 16.6667 16.5763C16.6667 19.4883 14.7995 19.3579 12.1971 19.176C11.5091 19.1279 10.7698 19.0763 9.99999 19.0763C9.23018 19.0763 8.49084 19.1279 7.80288 19.176C5.20045 19.3579 3.33332 19.4883 3.33332 16.5763C3.33332 15.3145 3.68387 14.2813 4.29289 13.4684C5.11667 12.3687 6.41336 11.6718 7.95509 11.3565C8.59413 11.2258 9.27527 11.1607 9.98228 11.1596C9.98818 11.1596 9.99409 11.1596 9.99999 11.1596C10.0059 11.1596 10.0118 11.1596 10.0177 11.1596ZM9.65753 9.88276C9.15384 9.80379 8.68333 9.55515 8.27139 9.19917C7.85192 8.83669 7.49317 8.36291 7.22193 7.84366C6.87108 7.172 6.66666 6.42426 6.66666 5.74292C6.66666 5.63931 6.67138 5.5368 6.68063 5.43561C6.74595 4.72102 7.03682 4.07165 7.48142 3.55929C8.09259 2.85499 8.99427 2.40959 9.99999 2.40959C11.8409 2.40959 13.3333 3.90197 13.3333 5.74292C13.3333 6.81931 12.8231 8.06141 12.0314 8.90747C11.9345 9.01098 11.8334 9.10855 11.7286 9.19917C11.3166 9.55514 10.8461 9.80378 10.3425 9.88276C10.2299 9.90041 10.1156 9.90959 9.99999 9.90959C9.88437 9.90959 9.77012 9.90041 9.65753 9.88276ZM17.5 3.24292C17.5 4.62363 16.3807 6.36792 15 6.36792C14.8466 6.36792 14.6963 6.34638 14.5505 6.30619C14.5721 6.11759 14.5833 5.92939 14.5833 5.74292C14.5833 4.25585 13.8751 2.9342 12.7776 2.09682C13.1931 1.29264 14.0324 0.74292 15 0.74292C16.3807 0.74292 17.5 1.86221 17.5 3.24292ZM17.5868 13.5811C19.0333 13.6303 20 13.3909 20 11.5763C20 8.81483 17.7614 7.51375 15 7.51375C14.7501 7.51375 14.5044 7.52441 14.2644 7.54584C14.0508 8.16317 13.7395 8.75204 13.3602 9.26229C13.2965 9.34799 13.2296 9.43314 13.1594 9.51719C13.998 9.77268 14.7774 10.1451 15.4582 10.6495C16.4522 11.3861 17.1903 12.3725 17.5868 13.5811Z" fill="white"/>
</svg>
